<svg width="25" height="25" viewBox="0 0 25 25" fill="none" xmlns="http://www.w3.org/2000/svg">
<path fill-rule="evenodd" clip-rule="evenodd" d="M9.46558 7.71559C9.46558 5.92067 10.9207 4.46559 12.7156 4.46559C14.5105 4.46559 15.9656 5.92067 15.9656 7.71559C15.9656 9.51052 14.5105 10.9656 12.7156 10.9656C10.9207 10.9656 9.46558 9.51052 9.46558 7.71559ZM12.7156 2.96559C10.0922 2.96559 7.96558 5.09224 7.96558 7.71559C7.96558 10.3389 10.0922 12.4656 12.7156 12.4656C15.3389 12.4656 17.4656 10.3389 17.4656 7.71559C17.4656 5.09224 15.3389 2.96559 12.7156 2.96559ZM6.46558 19.0489C6.46558 17.6042 7.60265 16.4656 8.96558 16.4656H16.4656C17.8285 16.4656 18.9656 17.6042 18.9656 19.0489V19.9656H6.46558V19.0489ZM8.96558 14.9656C6.73865 14.9656 4.96558 16.8118 4.96558 19.0489V20.7156C4.96558 21.1298 5.30136 21.4656 5.71558 21.4656H19.7156C20.1298 21.4656 20.4656 21.1298 20.4656 20.7156V19.0489C20.4656 16.8118 18.6925 14.9656 16.4656 14.9656H8.96558Z" fill="black"/>
</svg>
